<svg xmlns="http://www.w3.org/2000/svg" width="21.046" height="25.254" viewBox="0 0 21.046 25.254"><g transform="translate(0 0)"><g transform="translate(0 3.683)"><path d="M63.628,92.285,61.82,89.273a8.952,8.952,0,0,1-1.274-4.6V82.033a7.366,7.366,0,0,0-14.731,0v2.638a8.952,8.952,0,0,1-1.274,4.6l-1.808,3.012a.526.526,0,0,0,.451.8H63.177a.526.526,0,0,0,.451-.8Zm-19.515-.256,1.329-2.215a9.995,9.995,0,0,0,1.425-5.143V82.033a6.313,6.313,0,0,1,12.627,0v2.638a10,10,0,0,0,1.424,5.143l1.33,2.215Z" transform="translate(-42.657 -74.667)"/></g><g transform="translate(8.418)"><path d="M215.438,0a2.107,2.107,0,0,0-2.1,2.1v2.1a.526.526,0,0,0,1.052,0V2.1a1.052,1.052,0,1,1,2.1,0v2.1a.526.526,0,0,0,1.052,0V2.1A2.107,2.107,0,0,0,215.438,0Z" transform="translate(-213.333)"/></g><g transform="translate(7.892 21.046)"><path d="M207.574,426.939a.527.527,0,0,0-.909.532,1.578,1.578,0,1,1-2.734,0,.527.527,0,0,0-.909-.532,2.632,2.632,0,1,0,4.552,0Z" transform="translate(-202.666 -426.68)"/></g></g></svg>