<svg xmlns="http://www.w3.org/2000/svg" width="30" height="30" viewBox="0 0 30 30"><defs><style>.a{fill:#3e87cb;}.b{fill:#fff;}</style></defs><g transform="translate(-1168 -265)"><path class="a" d="M2,0H28a2,2,0,0,1,2,2V28a2,2,0,0,1-2,2H2a2,2,0,0,1-2-2V2A2,2,0,0,1,2,0Z" transform="translate(1168 265)"/><g transform="translate(7 3)"><path class="b" d="M3,6V8H21V6Z" transform="translate(1164 263)"/><path class="b" d="M3,6V8H21V6Z" transform="translate(1164 267.696)"/><path class="b" d="M3,6V8H21V6Z" transform="translate(1164 272.391)"/><path class="b" d="M3,6V8H21V6Z" transform="translate(1164 277.087)"/></g></g></svg>