<svg xmlns="http://www.w3.org/2000/svg" width="30" height="30" viewBox="0 0 30 30"><defs><style>.a{fill:#f5f5f5;stroke:#cfd2d5;}.b{fill:none;}.c{fill:#bfbfbf;}.d{stroke:none;}</style></defs><g transform="translate(-1128 -265)"><g class="a" transform="translate(1128 265)"><rect class="d" width="30" height="30" rx="2"/><rect class="b" x="0.5" y="0.5" width="29" height="29" rx="1.5"/></g><g transform="translate(1131 268)"><path class="b" d="M0,0H24V24H0Z"/><path class="c" d="M4,8H8V4H4Zm6,12h4V16H10ZM4,20H8V16H4Zm0-6H8V10H4Zm6,0h4V10H10ZM16,4V8h4V4ZM10,8h4V4H10Zm6,6h4V10H16Zm0,6h4V16H16Z"/></g></g></svg>