<svg xmlns="http://www.w3.org/2000/svg" width="16" height="16" viewBox="0 0 16 16"><defs><style>.a{opacity:0.7;}.b{fill:#fff;}.c{opacity:0.6;}.d{opacity:0.5;}.e{opacity:0.4;}.f{opacity:0.3;}.g{opacity:0.9;}.h{opacity:0.2;}.i{opacity:0.8;}</style></defs><g class="a" transform="translate(7.468 12.524)"><path class="b" d="M242.19,418.34a.532.532,0,0,1,.532.532v2.411a.532.532,0,1,1-1.064,0v-2.411A.532.532,0,0,1,242.19,418.34Z" transform="translate(-241.658 -418.34)"/></g><g transform="translate(7.468)"><path class="b" d="M242.19,0a.532.532,0,0,1,.532.532V2.943a.532.532,0,1,1-1.064,0V.532A.532.532,0,0,1,242.19,0Z" transform="translate(-241.658 0)"/></g><g class="c" transform="translate(10.05 11.646)"><path class="b" d="M121.093,394.74a.532.532,0,0,1,.727.195l1.206,2.088a.532.532,0,1,1-.922.532l-1.206-2.088A.532.532,0,0,1,121.093,394.74Z" transform="translate(-120.827 -394.668)"/></g><g transform="translate(3.68 1.201)"><path class="b" d="M330.263,32.447a.532.532,0,0,1,.727.195L332.2,34.73a.532.532,0,1,1-.922.532l-1.206-2.088A.532.532,0,0,1,330.263,32.447Z" transform="translate(-329.997 -32.376)"/></g><g class="d" transform="translate(11.646 10.05)"><path class="b" d="M32.444,330.263a.532.532,0,0,1,.727-.195l2.088,1.206a.532.532,0,1,1-.532.922l-2.088-1.206A.532.532,0,0,1,32.444,330.263Z" transform="translate(-32.373 -329.997)"/></g><g transform="translate(1.201 3.68)"><path class="b" d="M394.738,121.094a.532.532,0,0,1,.727-.195l2.088,1.206a.532.532,0,1,1-.532.922l-2.088-1.206A.532.532,0,0,1,394.738,121.094Z" transform="translate(-394.667 -120.828)"/></g><g class="e" transform="translate(12.524 7.468)"><path class="b" d="M.532,241.658H2.943a.532.532,0,0,1,0,1.064H.532a.532.532,0,1,1,0-1.064Z" transform="translate(0 -241.658)"/></g><g transform="translate(0 7.468)"><path class="b" d="M418.871,241.658h2.411a.532.532,0,0,1,0,1.064h-2.411a.532.532,0,0,1,0-1.064Z" transform="translate(-418.339 -241.658)"/></g><g class="f" transform="translate(11.646 3.68)"><path class="b" d="M32.639,122.1l2.088-1.206a.532.532,0,1,1,.532.922l-2.088,1.206a.532.532,0,0,1-.532-.922Z" transform="translate(-32.373 -120.827)"/></g><g class="g" transform="translate(1.201 10.05)"><path class="b" d="M394.934,331.274l2.088-1.206a.532.532,0,1,1,.532.922l-2.088,1.206a.532.532,0,0,1-.532-.922Z" transform="translate(-394.668 -329.997)"/></g><g class="h" transform="translate(10.05 1.201)"><path class="b" d="M120.9,34.729l1.206-2.088a.532.532,0,1,1,.922.532l-1.206,2.088a.532.532,0,0,1-.922-.532Z" transform="translate(-120.827 -32.375)"/></g><g class="i" transform="translate(3.68 11.646)"><path class="b" d="M330.068,397.022l1.206-2.088a.532.532,0,0,1,.922.532l-1.206,2.088a.532.532,0,0,1-.922-.532Z" transform="translate(-329.997 -394.668)"/></g><g transform="translate(7.468)"><path class="b" d="M242.19,0a.532.532,0,0,1,.532.532V2.943a.532.532,0,1,1-1.064,0V.532A.532.532,0,0,1,242.19,0Z" transform="translate(-241.658 0)"/></g></svg>