<svg xmlns="http://www.w3.org/2000/svg" width="17.018" height="17" viewBox="0 0 17.018 17"><defs><style>.a{fill:#3e87cb;stroke:#3e87cb;}</style></defs><g transform="translate(-119.25 -97.28)"><path class="a" d="M37.826,37.062l-3.255-3.228a7.159,7.159,0,0,0-.386-9.738A7.055,7.055,0,0,0,29.136,22a7.172,7.172,0,1,0,0,14.345A7.093,7.093,0,0,0,33.8,34.607l3.255,3.255a.524.524,0,0,0,.359.138.545.545,0,0,0,.386-.166A.558.558,0,0,0,37.826,37.062ZM24.833,33.448a5.941,5.941,0,0,1-1.766-4.276,6.169,6.169,0,0,1,1.766-4.3,6,6,0,0,1,4.3-1.766,6.069,6.069,0,1,1-4.3,10.345Z" transform="translate(97.8 75.78)"/></g></svg>